<svg width="64" height="48" viewBox="0 0 64 48" fill="none" xmlns="http://www.w3.org/2000/svg">
<path d="M4 10.6667C4 8.89856 4.7375 7.20286 6.05025 5.95262C7.36301 4.70238 9.14348 4 11 4H53C54.8565 4 56.637 4.70238 57.9497 5.95262C59.2625 7.20286 60 8.89856 60 10.6667V17.3333C58.1435 17.3333 56.363 18.0357 55.0503 19.286C53.7375 20.5362 53 22.2319 53 24C53 25.7681 53.7375 27.4638 55.0503 28.714C56.363 29.9643 58.1435 30.6667 60 30.6667V37.3333C60 39.1014 59.2625 40.7971 57.9497 42.0474C56.637 43.2976 54.8565 44 53 44H11C9.14348 44 7.36301 43.2976 6.05025 42.0474C4.7375 40.7971 4 39.1014 4 37.3333V30.6667C5.85652 30.6667 7.63699 29.9643 8.94975 28.714C10.2625 27.4638 11 25.7681 11 24C11 22.2319 10.2625 20.5362 8.94975 19.286C7.63699 18.0357 5.85652 17.3333 4 17.3333V10.6667Z" fill="white"/>
<g clip-path="url(#clip0_4486_9815)">
<path d="M38.2993 25.5C37.8426 25.5 37.3228 25.5 36.7716 25.575C38.5986 26.835 39.8743 28.5 39.8743 30.75V34.5H49.3243V30.75C49.3243 27.255 41.9691 25.5 38.2993 25.5ZM25.6993 25.5C22.0296 25.5 14.6743 27.255 14.6743 30.75V34.5H36.7243V30.75C36.7243 27.255 29.3691 25.5 25.6993 25.5ZM25.6993 22.5C26.9525 22.5 28.1543 22.0259 29.0404 21.182C29.9265 20.3381 30.4243 19.1935 30.4243 18C30.4243 16.8065 29.9265 15.6619 29.0404 14.818C28.1543 13.9741 26.9525 13.5 25.6993 13.5C24.4462 13.5 23.2443 13.9741 22.3582 14.818C21.4721 15.6619 20.9743 16.8065 20.9743 18C20.9743 19.1935 21.4721 20.3381 22.3582 21.182C23.2443 22.0259 24.4462 22.5 25.6993 22.5ZM38.2993 22.5C39.5525 22.5 40.7543 22.0259 41.6404 21.182C42.5265 20.3381 43.0243 19.1935 43.0243 18C43.0243 16.8065 42.5265 15.6619 41.6404 14.818C40.7543 13.9741 39.5525 13.5 38.2993 13.5C37.0462 13.5 35.8443 13.9741 34.9582 14.818C34.0721 15.6619 33.5743 16.8065 33.5743 18C33.5743 19.1935 34.0721 20.3381 34.9582 21.182C35.8443 22.0259 37.0462 22.5 38.2993 22.5Z" fill="black"/>
</g>
<defs>
<clipPath id="clip0_4486_9815">
<rect width="56" height="40" fill="white" transform="translate(4 4)"/>
</clipPath>
</defs>
</svg>
